HIERARCHY
ROOT Hips
{
  OFFSET 9.17763 102.617 -181.618
  CHANNELS 6 Xposition Yposition Zposition Zrotation Xrotation Yrotation
  JOINT RightUpLeg
  {
    OFFSET -8.9458 -8.66707 0.101652
    CHANNELS 3 Zrotation Xrotation Yrotation
    JOINT RightLeg
    {
      OFFSET 0 -44.4227 1.3727
      CHANNELS 3 Zrotation Xrotation Yrotation
      JOINT RightFoot
      {
        OFFSET 0.253549 -42.0924 -1.46059
        CHANNELS 3 Zrotation Xrotation Yrotation
        JOINT RightToes
        {
          OFFSET 0.04 -4.41509 8.4991
          CHANNELS 3 Zrotation Xrotation Yrotation
          End Site
          {
            OFFSET -0.08 -0.137448 9.77979
          }
        }
      }
    }
  }
  JOINT Spine
  {
    OFFSET 0 11.8905 0
    CHANNELS 3 Zrotation Xrotation Yrotation
    JOINT Spine1
    {
      OFFSET 0 25.6574 0.127663
      CHANNELS 3 Zrotation Xrotation Yrotation
      JOINT HEad
      {
        OFFSET 0 8.73416 0.011341
        CHANNELS 3 Zrotation Xrotation Yrotation
        End Site
        {
          OFFSET -0.29 12.7742 2.51395
        }
      }
      JOINT LeftShoulder1
      {
        OFFSET 8.99 -0.362252 -0.22
        CHANNELS 3 Zrotation Xrotation Yrotation
        JOINT LeftArm
        {
          OFFSET 10.2827 -0.00338 0.322123
          CHANNELS 3 Zrotation Xrotation Yrotation
          JOINT LeftForeArm
          {
            OFFSET 32.7669 0.099144 -1.42434
            CHANNELS 3 Zrotation Xrotation Yrotation
            JOINT LeftHand
            {
              OFFSET 27.5643 0.085362 1.02216
              CHANNELS 3 Zrotation Xrotation Yrotation
              End Site
              {
                OFFSET 16.7443 -0.6 1.50291
              }
            }
          }
        }
      }
      JOINT RightShoulder
      {
        OFFSET -8.99 -0.362252 -0.22
        CHANNELS 3 Zrotation Xrotation Yrotation
        JOINT RightArm
        {
          OFFSET -10.2827 -0.00338 0.322123
          CHANNELS 3 Zrotation Xrotation Yrotation
          JOINT RightForeArm
          {
            OFFSET -32.8971 0.099144 -1.42434
            CHANNELS 3 Zrotation Xrotation Yrotation
            JOINT RightHand
            {
              OFFSET -27.4921 0.085362 1.02216
              CHANNELS 3 Zrotation Xrotation Yrotation
              End Site
              {
                OFFSET -16.6312 -0.6 1.50291
              }
            }
          }
        }
      }
    }
  }
  JOINT LeftUpLeg
  {
    OFFSET 8.9458 -8.66707 0.101652
    CHANNELS 3 Zrotation Xrotation Yrotation
    JOINT LeftLeg
    {
      OFFSET 0 -44.4227 1.3727
      CHANNELS 3 Zrotation Xrotation Yrotation
      JOINT LeftFoot
      {
        OFFSET -0.253549 -42.0924 -1.46059
        CHANNELS 3 Zrotation Xrotation Yrotation
        JOINT LeftToes
        {
          OFFSET -0.04 -4.41509 8.4991
          CHANNELS 3 Zrotation Xrotation Yrotation
          End Site
          {
            OFFSET 0.08 -0.047448 9.77979
          }
        }
      }
    }
  }
}
MOTION
Frames:	12
Frame Time:	0.0166667
9.46825 101.67 -199.071 -0.49658 0.103168 -4.68548 10.7522 -24.3368 0.836529 -8.99325 27.0691 0.238336 0.592273 -6.65116 -0.171166 0.0462048 0.000533964 0.662642 0.878415 4.43414 -0.495908 -1.44478 7.80591 0.110532 1.68761 -2.42038 6.76288 0 3.18055e-015 -0 -89.0096 -34.7845 -16.5695 -18.2529 17.1729 -31.1926 0.368473 9.90896 -0.00117926 -7.00229 0.239533 6.80205 92.9886 -28.0832 7.25815 20.3948 13.8352 9.92354 -0.369625 9.91382 0.00119886 -4.08755 3.44989 -0.316619 -2.2137 38.0146 3.82244 -0.528817 -5.11038 0.0262763 3.38491e-012 2.64304e-012 -4.28779e-012 
9.36222 101.794 -197.396 -0.676432 -0.00433942 -4.02454 10.8095 -23.4446 1.44851 -8.67422 27.8545 -1.10598 0.491336 -7.70764 -0.18599 0.0544169 -0.610696 0.839209 1.52137 4.53522 -0.628598 -1.57828 8.18731 0.131099 1.81236 -2.308 6.18767 -3.97569e-016 0 7.95139e-016 -89.0255 -34.5333 -16.1118 -18.2629 16.8908 -29.5602 0.368473 9.90896 -0.00117926 -7.36786 0.195916 6.13954 93.9545 -26.3906 8.77895 20.7206 14.0985 11.3462 -0.369625 9.91382 0.00119886 -3.14684 0.552662 1.44358 -1.04908 43.188 1.65036 -1.75594 -1.92898 0.0720354 -4.64642 12.3354 -7.04564 
9.26058 101.912 -195.736 -0.841498 -0.0565212 -3.32886 10.8109 -22.6022 1.88975 -8.35101 28.5786 -2.27966 0.450624 -8.80287 -0.196151 0.0420388 -1.1642 0.762805 2.13565 4.62324 -0.759278 -1.73769 8.4938 0.153961 1.98378 -2.26088 5.61946 0 0 -0 -89.0139 -34.3214 -15.6041 -18.2607 16.6152 -28.0493 0.368473 9.90896 -0.00117926 -7.52025 0.16772 5.46717 94.5309 -24.6953 10.1892 21.1018 14.4075 12.9734 -0.369625 9.91382 0.00119886 -2.20809 -2.44663 3.03365 0.610314 48.1965 -0.922756 -2.5846 0.315717 0.100245 -5.72318 20.6291 -11.9616 
9.16143 102.001 -194.118 -1.00044 0.0512736 -2.48698 10.7492 -21.9186 1.99554 -8.07693 29.2018 -3.0678 0.636844 -10.0082 -0.189837 -0.0586303 -1.64737 -0.152077 2.70864 4.68779 -0.894935 -1.97146 8.58245 0.184271 2.2619 -2.38006 5.04639 0 3.18055e-015 -0 -88.9631 -34.249 -15.0047 -18.2498 16.4103 -26.8166 0.368473 9.90896 -0.00117926 -7.03627 0.185527 4.71234 94.1501 -22.9229 11.3238 21.7027 14.8482 15.2026 -0.369625 9.91382 0.00119886 -1.62433 -5.77204 4.38855 3.1284 53.0247 -4.74465 -2.19472 -0.303069 0.0723342 -4.10324 17.8681 -7.84023 
9.0881 102.097 -192.525 -1.09259 0.227933 -1.69425 10.5576 -21.2777 1.62955 -7.90993 29.6782 -3.3235 0.794848 -11.2646 -0.183072 -0.17654 -1.86675 -1.16223 3.16093 4.70805 -1.00637 -2.23621 8.58234 0.215491 2.63129 -2.62668 4.53115 -9.93923e-017 3.18055e-015 -3.97569e-016 -88.7722 -34.1792 -14.222 -18.2969 16.2615 -25.8488 0.368473 9.90896 -0.00117926 -6.32496 0.22019 4.05345 93.405 -21.3237 12.4214 22.2424 15.3377 17.6637 -0.369625 9.91382 0.00119886 -1.18824 -9.16113 5.06511 5.64679 57.0862 -7.98231 -1.42366 -1.75177 0.0337438 -1.01981 11.6459 -1.76488 
9.07308 102.246 -190.956 -1.03109 0.437089 -1.12673 10.0998 -20.604 0.266666 -7.98093 29.8852 -2.49774 0.618416 -12.5976 -0.194174 -0.214559 -1.36537 -1.64236 3.33377 4.64716 -1.04545 -2.47645 8.54721 0.238464 3.18158 -3.06109 4.15325 -4.96962e-017 -3.18055e-015 3.97569e-016 -88.3262 -33.969 -13.0925 -18.4775 16.1868 -25.2741 0.368473 9.90896 -0.00117926 -5.63001 0.251052 3.63519 92.6294 -20.1307 13.6688 22.5105 15.85 20.1204 -0.369625 9.91382 0.00119886 -0.976433 -12.4862 4.25643 5.4799 59.9531 -6.94123 -0.929115 -2.34377 0.0225961 0.51807 8.38641 0.948833 
9.08705 102.395 -189.399 -0.882299 0.618028 -0.730802 9.61511 -19.8557 -1.07912 -8.11739 29.9884 -1.58291 0.422756 -13.8246 -0.20523 -0.216711 -0.925003 -1.8213 3.4521 4.54292 -1.07593 -2.77754 8.5601 0.266288 3.66639 -3.48613 3.85092 4.96962e-017 0 -3.97569e-016 -87.6927 -33.7144 -11.8093 -18.7595 16.1426 -24.8274 0.368473 9.90896 -0.00117926 -5.02998 0.2828 3.4861 92.0265 -19.291 15.0242 22.5199 16.3454 22.5546 -0.369625 9.91382 0.00119886 -1.07226 -15.6277 2.84206 3.68759 61.8238 -3.95609 -0.424644 -2.96501 0.0222738 1.72528 5.86414 3.15826 
9.11602 102.51 -187.842 -0.663133 0.685323 -0.507187 9.24951 -18.9766 -1.40676 -8.16424 30.1329 -1.5983 0.469201 -14.6771 -0.202644 -0.219081 -1.45861 -1.66355 3.73225 4.41902 -1.16454 -3.26266 8.7529 0.314816 3.78387 -3.68413 3.51564 4.96962e-017 0 1.98785e-016 -86.8455 -33.4673 -10.4915 -19.1242 16.0772 -24.2538 0.368473 9.90896 -0.00117926 -4.64232 0.319822 3.73746 91.9156 -18.8919 16.522 22.1915 16.7876 24.8553 -0.369625 9.91382 0.00119886 -1.35621 -18.3909 1.37482 1.75062 62.6998 -1.3638 0.174462 -4.02958 0.0269247 3.29577 4.10234 5.75811 
9.14653 102.591 -186.293 -0.426919 0.676815 -0.468957 8.95808 -18.0149 -1.26924 -8.15268 30.3068 -1.93916 0.618043 -15.4379 -0.19051 -0.203017 -2.11375 -1.33727 4.0409 4.28087 -1.25414 -3.76419 9.03269 0.366818 3.80584 -3.77569 3.36673 1.10348e-032 3.18055e-015 -1.98785e-016 -85.918 -33.2422 -9.18024 -19.5842 16.0065 -23.6574 0.368473 9.90896 -0.00117926 -4.59499 0.342251 4.22576 92.3117 -18.7304 18.1292 21.6452 17.1789 27.0495 -0.369625 9.91382 0.00119886 -1.76216 -20.8177 0.123113 0.120786 62.618 0.81 0.814182 -5.26649 0.0424474 5.15546 2.44103 8.89211 
9.15273 102.624 -184.769 -0.248148 0.602416 -0.674121 8.80556 -16.9968 -0.694286 -8.00117 30.5719 -2.49141 0.85278 -16.3414 -0.163708 -0.156562 -2.13282 -0.918671 4.31563 4.13878 -1.30348 -4.12585 9.38677 0.409212 3.97054 -3.86787 3.72907 4.96962e-017 6.36111e-015 -1.98785e-016 -85.0364 -33.0873 -7.9734 -20.1687 15.9402 -23.1138 0.368473 9.90896 -0.00117926 -5.20849 0.323202 4.86926 93.5068 -18.6575 19.8772 20.9259 17.5082 29.1399 -0.369625 9.91382 0.00119886 -2.03324 -22.9137 -0.248499 -0.133551 61.6429 1.51416 1.54474 -6.56166 0.0782669 8.03317 0.0567428 13.5502 
9.15779 102.628 -183.227 -0.0893034 0.460546 -0.98853 8.64621 -15.9045 -0.240674 -7.90206 30.8405 -2.79758 1.06516 -17.2647 -0.136378 -0.126817 -2.14338 -0.647479 4.56167 4.00168 -1.33179 -4.43544 9.70632 0.445221 4.07192 -3.78401 4.17771 3.31043e-032 -3.18055e-015 5.96354e-016 -84.1715 -32.9713 -6.80726 -20.8102 15.8462 -22.4528 0.368473 9.90896 -0.00117926 -6.01797 0.288414 5.55385 94.9237 -18.6119 21.5934 20.1871 17.7894 31.0853 -0.369625 9.91382 0.00119886 -2.2565 -24.643 -0.226517 0.274298 59.8548 1.7645 2.14015 -7.85853 0.118261 11.085 -2.40266 18.0833 
9.17763 102.617 -181.618 0.0517648 0.238081 -1.258 8.40011 -14.7331 -0.714736 -8.12875 31.0429 -2.13893 1.12143 -18.1352 -0.121998 -0.151389 -2.703 -0.75176 4.76043 3.88372 -1.34333 -4.72726 9.86862 0.473797 3.90903 -3.30919 4.26374 -2.20695e-032 -6.36111e-015 -1.98785e-016 -83.3447 -32.826 -5.69527 -21.4527 15.6669 -21.3998 0.368473 9.90896 -0.00117926 -6.58391 0.259031 6.08217 95.9683 -18.4905 23.0806 19.6266 18.0373 32.8463 -0.369625 9.91382 0.00119886 -2.55231 -25.9598 -0.0688859 1.19451 57.3227 2.22247 2.27809 -9.1034 0.146323 13.0217 -4.7018 20.7324 
